/* XPM */
static char *test[] = {
/* columns rows colors chars-per-pixel */
"64 32 256 2",
"   c #0F3247",
".  c #0F3348",
"X  c #103347",
"o  c #11354B",
"O  c #12384F",
"+  c #1A3B4E",
"@  c #133D54",
"#  c #1A3D52",
"$  c #203E51",
"%  c #144057",
"&  c #16435B",
"*  c #1B4256",
"=  c #1A465C",
"-  c #1F4857",
";  c #1D495D",
":  c #174760",
">  c #174861",
",  c #194B64",
"<  c #1A4F69",
"1  c #184760",
"2  c #1B526D",
"3  c #1D5571",
"4  c #1E5875",
"5  c #28434B",
"6  c #254455",
"7  c #24465A",
"8  c #254956",
"9  c #234B5C",
"0  c #2B4C5D",
"q  c #2B4954",
"w  c #2C515B",
"e  c #374A4A",
"r  c #344F5B",
"t  c #3B4D52",
"y  c #3B514C",
"u  c #3C5353",
"i  c #3A5A55",
"p  c #37555B",
"a  c #274D61",
"s  c #22556C",
"d  c #2B5465",
"f  c #2B596C",
"g  c #285668",
"h  c #205671",
"j  c #245A74",
"k  c #295C72",
"l  c #235C78",
"z  c #335164",
"x  c #325C6B",
"c  c #395563",
"v  c #3D5D63",
"b  c #395A69",
"n  c #315E70",
"m  c #2F6178",
"M  c #3B6168",
"N  c #336274",
"B  c #3D6673",
"V  c #396878",
"C  c #494E2D",
"Z  c #494F3C",
"A  c #4D532D",
"S  c #4B5639",
"D  c #50552E",
"F  c #575E2D",
"G  c #555B35",
"H  c #5A5C34",
"J  c #575A38",
"K  c #59612E",
"L  c #5A6132",
"P  c #62633B",
"I  c #68683A",
"U  c #6A763C",
"Y  c #787A3F",
"T  c #404E4D",
"R  c #4E544B",
"E  c #4D584C",
"W  c #43574A",
"Q  c #455858",
"!  c #5B5C45",
"~  c #575B48",
"^  c #595C5A",
"/  c #455C69",
"(  c #465E71",
")  c #4D644D",
"_  c #4A655E",
"`  c #5D614A",
"'  c #5E6246",
"]  c #586758",
"[  c #5F785E",
"{  c #4D6361",
"}  c #45656A",
"|  c #4B6D74",
" . c #4F697B",
".. c #496475",
"X. c #4E7073",
"o. c #566866",
"O. c #526674",
"+. c #556D7D",
"@. c #5D6E7B",
"#. c #556C74",
"$. c #5B7268",
"%. c #567473",
"&. c #537377",
"*. c #6B6C47",
"=. c #666947",
"-. c #646C52",
";. c #6C675A",
":. c #6B7648",
">. c #6D7753",
",. c #766948",
"<. c #756B55",
"1. c #767644",
"2. c #74744C",
"3. c #7B7A4C",
"4. c #787B47",
"5. c #7A7453",
"6. c #7B7A54",
"7. c #767857",
"8. c #626E69",
"9. c #64746B",
"0. c #6A7868",
"q. c #697976",
"w. c #7C6B60",
"e. c #797B68",
"r. c #777B76",
"t. c #556C81",
"y. c #5D7584",
"u. c #636E80",
"i. c #667887",
"p. c #767D8A",
"a. c #7A804E",
"s. c #7E8058",
"d. c #7C8369",
"f. c #75828E",
"g. c #7B8688",
"h. c #788997",
"j. c #7E919F",
"k. c #86744D",
"l. c #837C54",
"z. c #877957",
"x. c #9A794E",
"c. c #957C5D",
"v. c #9F7F5A",
"b. c #9A7953",
"n. c #866649",
"m. c #836E61",
"M. c #847E64",
"N. c #8B7A65",
"B. c #847D76",
"V. c #967C66",
"C. c #8E874D",
"Z. c #8B8453",
"A. c #89845B",
"S. c #888759",
"D. c #8F9050",
"F. c #958C5D",
"G. c #9A845B",
"H. c #988A59",
"J. c #9C935A",
"K. c #888769",
"L. c #868374",
"P. c #968967",
"I. c #958D72",
"U. c #98897C",
"Y. c #9C926C",
"T. c #96956A",
"R. c #989974",
"E. c #A4835B",
"W. c #A2925C",
"Q. c #B08B5E",
"!. c #A78D67",
"~. c #A68963",
"^. c #A28D78",
"/. c #AD936D",
"(. c #A59667",
"). c #A69A7A",
"_. c #AE9C74",
"`. c #A69574",
"'. c #B48D67",
"]. c #B08F6D",
"[. c #B69A69",
"{. c #B79874",
"}. c #A3A062",
"|. c #BAA278",
" X c #C59E78",
".X c #C09767",
"XX c #C7A578",
"oX c #888B89",
"OX c #828890",
"+X c #928D84",
"@X c #9F9481",
"#X c #8999A8",
"$X c #9197A3",
"%X c #9AA2AA",
"&X c #99A8B5",
"*X c #B39F82",
"=X c #A99B94",
"-X c #B7A786",
";X c #B0A195",
":X c #BCB389",
">X c #A1A1A8",
",X c #B8ACA5",
"<X c #BCB9BD",
"1X c #A9B5C2",
"2X c #B1BCC6",
"3X c #B9C2CD",
"4X c #BDC7D2",
"5X c #BEC7D8",
"6X c #CCAC83",
"7X c #C6A883",
"8X c #C8B38C",
"9X c #C2B395",
"0X c #CBBF9D",
"qX c #D0AF88",
"wX c #D6B98B",
"eX c #D1B38B",
"rX c #DABE93",
"tX c #D4BB96",
"yX c #C9BBAA",
"uX c #C7BEB6",
"iX c #D7BEA3",
"pX c #C1BEC8",
"aX c #D9C39B",
"sX c #CCC5BD",
"dX c #C5C0BF",
"fX c #DEC7A9",
"gX c #C5C4CC",
"hX c #CBC6CA",
"jX c #C4C9D5",
"kX c #CDCCD4",
"lX c #CBCDDB",
"zX c #C6C8D9",
"xX c #CBD0DB",
"cX c #D2CBC6",
"vX c #D0CED7",
"bX c #D3D0CC",
"nX c #D5D2D4",
"mX c #D5D4DC",
"MX c #D7D8DF",
"NX c #D9D6DD",
"BX c #DAD8DE",
"VX c #DBD6D2",
"CX c #D3D5E3",
"ZX c #D5D9E5",
"AX c #D7DBE9",
"SX c #DCDBE1",
"DX c #DADEE9",
"FX c #D2D6E8",
"GX c #DDE3ED",
"HX c #E0DFE5",
"JX c #E5E1DC",
"KX c #E4E2E4",
"LX c #E1E6EE",
"PX c #E3E9EE",
"IX c #EBEAEB",
"UX c #E9E6E4",
/* pixels */
"mXmXSXSXBXHXHXHXHXSXSXSXHXBXmXmXNXSXSXBXBXHXSXNXNXSXNXNXSXNXNXSXNXNXSXSXHXDXSXSXSXmXSXSXSXMXHXSXBXNXmXmXvXlXzXlXvXlXlXlXlXlXzXlX",
"kXkXBXHXKXUXUXIXIXIXUXKXJXVXVXsXyXcXcXuXuXVXVXvXhXkXgX%Xt...( u.i.i.p.f.f.p.u.y.@.O.O.O.f.p.i.i.g.OXh.$XpXpXgXpXpXhXhXvXvXvXkXNX",
"BXKXVXnXnXnXnXcXuX%X,XuXhXuX,X;X+XoXc / f.%XHXUXIXIXIXBX+.X X X . o $ $ O . o o . O q $ O X O $ e e R T r O.O.( u.p.p.>X<XgXhXHX",
"bX#X@.B.U.+Xr.{ Q T w.w.m.U.=XU.^.m.B.e.oXq @.HXIXIXvXh.# O O O o o # / Q t $ # # e 5 5 R e Z J =.=.~ ! ! ' ;.E E ~ R e e t u oX",
"p r q ` <.z.M.M.5.<.~ =.5.k.,.<.^ ^ o.<.d.w w bXgXt.@ @ ..z @ O O z e.] ! ` R S G G P J A C C J *.*.=.' H G :.6.P.P.6.2.6.6.2.` ",
"@ @ * W ] c b q.L.I.7.5.k.l.k.t % & ;.;.o.& % w z @ & @ @ @ & 9 % r.' 8 R ! H H K H I D C C C D J J P =.6.5.6.2.s._ _ i ] q 8 @ ",
"& & & & @ @ @ @ 0 B.I.T.F.6.=.4.1.u k.(.(.d.& % @ @ & @ & & p W 8 W ~ ` k.Y L L L L 4.I I D J 3.A.P.7.M.P.S.2.S.] 9 & w i % % % ",
"@ @ # @ @ @ : @ * 0 7.T.R.Y.S.2.) :.D.a.i x x > & & & @ @ & = p 4.A.Z.k.H.S S ,.y y n.k.k.7.z./.qX8X^.`.P.Z.1.4.-.0 & % @ @ % % ",
"% % % & & & & = & ; K.-X9X-X(.D.a.a.a.i , & & & @ & & : & & Q K.] v { e.<.Q o.R.9.;.5.b.z.Y.{.].{.7XXXXX|.F.D._ ; p & & % & % & ",
": & & & & & & = = = 8.-X9X:X}.U U U 8 & & & & & > : , : & & p e.r.9.g 9 z q.).XX:XL.~./.8XyXtXiXfXtXeX|.P.M { g _ ; & & & & & & ",
"= : : : = : > > > > , o.`.-XD.) ) W < = , > & > , , , : , , d.tXaX7XI.r.e.8._. XP.tX].6X!.P.9XiX9X0X_.(.b.;.2 w < & = & > & = , ",
", , < , , > , , , < < 2 } ).0.2 < f 2 = , > , < < , , , 3 d.XX6X7XtXwX7X6X{.q.6X*Xr.q.9.P.b.G.].P./.|.(.F.B 2 , , < , , , , > , ",
"< 2 < < 2 , , , < < < 2 2 $.K.M M s x N 2 , < 2 < < < < 2 -XfXtXaXaXfX6XaXXXB.@XeX7X..2 f l.G.} { P.Y.| 3 k , , < 2 < , < , < 2 ",
"< < 2 < < 2 2 2 2 2 2 2 3 3 k B [ s 3 s 3 2 2 2 2 < < 2 h z.'. XXXXX6XXXaXXX{.r.g.n 3 2 3 K.M 3 h $.A.%.2 V 3 2 2 2 < < 2 2 < 2 ",
"< 2 2 2 2 2 2 2 2 2 2 3 3 3 3 3 4 N 9.s.K.X.h 3 3 2 2 3 3 M P.G.G.~.G.E.Q.x.|. X-X3 3 2 3 n f 3 h V B l m m B 2 3 3 3 2 2 2 2 2 ",
"2 2 2 3 2 3 2 3 2 3 3 3 3 3 3 4 4 j R.a.S.Z.6.4 3 3 3 3 3 2 f j 4 $.Z.z.H.[.{.v./ 3 3 3 3 3 3 3 4 %.| B K.k m 3 2 3 3 3 4 3 2 2 ",
"2 2 2 2 2 2 2 2 3 3 2 3 3 3 3 4 4 | :.L I I I =.$.M 2 2 2 3 2 2 2 f 3.H.W.R._.b 2 3 2 3 2 2 2 2 2 k 9.M o.&.l ..%.&.j 4 4 2 3 2 ",
"< < 2 2 < < 2 2 < < < 2 2 2 2 2 2 j s.S F K U Y /.T.< < 2 2 2 2 < < 0.!.(.(.J.s 2 2 3 2 2 2 2 2 2 < s M k k k l f 9.| s 4 2 2 2 ",
"2 < , < < 2 2 < < < < 2 < < < < < < d.R.I Y a.J.(.f < < < < < < , < L.(.(.(.F.f ..< 2 2 2 , , 2 , < < < > 2 #.5.x o.s < < 2 2 2 ",
"2 , , , , , , < < , < < < < , , , < < f.).I C.J.S.2 & < > < , , > , L.{././._ f d.> , 2 , , , < > > > > x M.XX.XE.Q.} 2 < s , s ",
", & & & : > > > , , , , , , , , : , , g.P.,.z.[ < > & & > > > & > > #.7X/.N.d a x : : : , : : : > > : , K.[.[.[.Q.b.D.d , , , > ",
"& & & % & & & : & & & > > & = & : : = +Xb.,.<.a : & > & & : > & = = > ^.`.} > = : = & = & : : : : = = : ] H.z.<.v.x.C.w > > > = ",
"& % % % % % % & & & & & & & & & @ & & V.n.<.7 @ % % & & & & & & % & % 9 : @ @ : : & % @ & & & & & & % @ 8 = % = r ,.] & & = > w ",
"& & % % % % % % @ % % & % % % % & @ 9 ^.^ > @ @ @ % @ % & & % % @ % @ @ % % & @ % : @ @ % % % & % % % % % % % @ # = - @ % % } 9 ",
"% % % % @ @ @ @ @ @ @ % % @ @ @ @ @ z N.7 % @ @ O @ @ @ % % % @ @ @ @ @ @ @ @ @ @ @ @ @ : @ @ @ @ @ @ @ @ @ @ @ @ @ @ @ @ = = % ",
". o .   O O O @ O O @ @ O @ O O O @ * Q & & @ O @ @ O O O @ O @ @ @ O O O O O @ O O O @ @ @ O O @ @ @ @ @ O O O # @ O O O @ @ # ",
"o . . % O O O O . O . . o o . . X o o o O . O O O O O O o o o o . O . O O . . . o o o O O O O o o o o o . O O X . O O O O . . . ",
"o .     . . . X . . . . . . .   X X X #  .t.@ . . . . .         . . . . . . . . @ ( a O o o z t.( j.h.b  .b &.y...a # X . O . O ",
"    X X X X X   . .     . 8 } 7 # o  .<XZXB .       .   X z i.h.j.j.#X#Xh.&X1X5XLXLXLXFX5X1XLXLXLXLXPXGXLXPXIXLXGXPXZX5X&Xh.t.. ",
"- % * z O.j.&X2X3XZXxX4XjX3XGXGXGXlXCXZXZX#Xt.z 7 7 ( h.3XDXKXGXLXLXPXPXLXLXGXLXLXGXGXAXAXGXLXLXGXGXGXLXPXPXLXGXGXGXGXGXDX4Xy.b ",
"GXxXZXZXZXFXFXAXDXDXDXGXGXGXGXGXDXFXCXlXzXzXFXCXCXAXZXDXAXAXGXGXGXAXGXAXAXGXGXGXGXGXGXGXGXGXGXGXLXGXGXGXGXGXGXGXGXAXDXGXDXDXDXGX",
"GXGXGXGXGXDXGXGXGXGXGXGXGXGXGXGXGXGXGXDXGXGXGXGXGXGXGXGXGXGXGXGXGXGXGXGXGXGXGXGXGXGXGXLXLXGXLXLXGXGXLXGXGXGXGXGXGXGXLXLXLXGXGXGX"
};
